<svg width="222" height="65" viewBox="0 0 222 65" fill="none" xmlns="http://www.w3.org/2000/svg">
<path d="M31.8102 62.7822C31.3463 62.7822 30.932 62.6942 30.5675 62.5183C30.203 62.3399 29.9136 62.0964 29.6995 61.788C29.4879 61.477 29.3783 61.1201 29.3706 60.7173H29.8563C29.8639 61.036 29.9544 61.3176 30.1277 61.5624C30.3011 61.8045 30.5331 61.9945 30.8237 62.1321C31.1168 62.2698 31.4431 62.3386 31.8026 62.3386C32.1926 62.3386 32.5342 62.2621 32.8274 62.1092C33.1231 61.9562 33.3538 61.7497 33.5195 61.4897C33.6852 61.2272 33.768 60.934 33.768 60.6102C33.768 60.2635 33.6775 59.9602 33.4965 59.7002C33.3155 59.4376 33.0632 59.2337 32.7394 59.0884C32.4157 58.9405 32.0397 58.8666 31.6114 58.8666H31.3208V58.423H31.6114C31.9759 58.423 32.3022 58.3567 32.5903 58.2242C32.8784 58.0891 33.1052 57.8991 33.2709 57.6544C33.4392 57.4097 33.5233 57.1204 33.5233 56.7864C33.5233 56.4729 33.4507 56.195 33.3054 55.9528C33.16 55.7106 32.9587 55.5207 32.7012 55.3831C32.4463 55.2454 32.1467 55.1766 31.8026 55.1766C31.4712 55.1766 31.1704 55.2441 30.9002 55.3792C30.6325 55.5144 30.4196 55.7043 30.2616 55.949C30.1035 56.1937 30.0232 56.478 30.0207 56.8017H29.5504C29.5554 56.3964 29.6574 56.0382 29.8563 55.7272C30.0576 55.4162 30.3266 55.174 30.6631 55.0007C31.0021 54.8248 31.3845 54.7368 31.8102 54.7368C32.2436 54.7368 32.6234 54.8273 32.9497 55.0083C33.2786 55.1893 33.5335 55.4341 33.7145 55.7425C33.898 56.051 33.9898 56.3938 33.9898 56.7711C33.9898 57.2249 33.8636 57.6136 33.6113 57.9374C33.3614 58.2586 33.0224 58.4816 32.5941 58.6066V58.6486C33.1014 58.7608 33.5029 58.9915 33.7986 59.3407C34.0943 59.69 34.2422 60.1131 34.2422 60.6102C34.2422 61.0181 34.1377 61.3865 33.9286 61.7153C33.7196 62.0442 33.4315 62.3042 33.0644 62.4954C32.6999 62.6866 32.2818 62.7822 31.8102 62.7822Z" fill="black"/>
<path d="M40.579 62.6751H38.4071V54.8439H40.7473C41.4815 54.8439 42.1098 54.9994 42.6324 55.3104C43.155 55.6214 43.5553 56.0675 43.8331 56.6488C44.1135 57.2274 44.2525 57.9221 44.2499 58.7327C44.2474 59.5612 44.1021 60.2699 43.814 60.8588C43.5259 61.4451 43.1091 61.895 42.5636 62.2086C42.0181 62.5196 41.3566 62.6751 40.579 62.6751ZM38.8851 62.2315H40.5599C41.2584 62.2315 41.8473 62.0926 42.3265 61.8147C42.8058 61.5343 43.1678 61.1328 43.4125 60.6102C43.6598 60.0877 43.7821 59.4618 43.7796 58.7327C43.7796 58.0139 43.661 57.3982 43.424 56.8858C43.1869 56.3709 42.8415 55.9758 42.3877 55.7004C41.9365 55.4251 41.3833 55.2875 40.7282 55.2875H38.8851V62.2315Z" fill="black"/>
<path d="M53.9286 54.8439V62.6751H53.4506V54.8439H53.9286Z" fill="black"/>
<path d="M58.6508 54.8439V62.6751H58.1843V54.8439H58.6508Z" fill="black"/>
<path d="M63.202 54.8439V62.6751H62.7355V54.8439H63.202Z" fill="black"/>
<path d="M71.0492 60.5911V56.8017H71.5157V62.6751H71.0492V61.723H71.011C70.8733 62.0263 70.6503 62.2736 70.3418 62.4648C70.0359 62.656 69.6739 62.7516 69.2559 62.7516C68.8709 62.7516 68.5306 62.6675 68.2349 62.4992C67.9392 62.331 67.7072 62.0926 67.5389 61.7842C67.3707 61.4732 67.2866 61.1035 67.2866 60.6752V56.8017H67.7531V60.6561C67.7531 61.1456 67.9009 61.542 68.1966 61.8453C68.4949 62.1461 68.8798 62.2966 69.3514 62.2966C69.6574 62.2966 69.939 62.2277 70.1965 62.0901C70.454 61.9524 70.6605 61.7561 70.816 61.5012C70.9715 61.2437 71.0492 60.9404 71.0492 60.5911Z" fill="black"/>
<path d="M79.3343 58.0674L78.9022 58.1821C78.8334 57.968 78.7352 57.7832 78.6078 57.6277C78.4803 57.4722 78.3197 57.3523 78.126 57.2682C77.9348 57.1815 77.7054 57.1382 77.4377 57.1382C77.0069 57.1382 76.6538 57.2453 76.3785 57.4594C76.1057 57.6735 75.9693 57.9527 75.9693 58.2968C75.9693 58.5772 76.0624 58.8092 76.2485 58.9928C76.4346 59.1738 76.7188 59.3114 77.1012 59.4057L78.0036 59.6313C78.4676 59.7461 78.8168 59.9321 79.0514 60.1896C79.2859 60.4445 79.4031 60.7619 79.4031 61.1418C79.4031 61.4655 79.3152 61.7523 79.1393 62.0021C78.9634 62.2519 78.7199 62.447 78.4089 62.5872C78.1005 62.7274 77.7411 62.7975 77.3306 62.7975C76.7825 62.7975 76.3326 62.67 75.9808 62.4151C75.629 62.1576 75.4034 61.7893 75.304 61.31L75.7514 61.1953C75.8355 61.5777 76.0101 61.8696 76.2753 62.0709C76.5429 62.2698 76.8934 62.3692 77.3268 62.3692C77.8061 62.3692 78.1923 62.2558 78.4854 62.0289C78.7811 61.802 78.929 61.5114 78.929 61.1571C78.929 60.8868 78.8423 60.6587 78.669 60.4726C78.4956 60.2865 78.233 60.1501 77.8813 60.0634L76.9444 59.834C76.4652 59.7167 76.1057 59.5294 75.8661 59.2719C75.6265 59.0119 75.5067 58.692 75.5067 58.3121C75.5067 57.996 75.5895 57.7181 75.7552 57.4785C75.9209 57.2389 76.1491 57.0515 76.4397 56.9164C76.7303 56.7813 77.063 56.7138 77.4377 56.7138C77.9348 56.7138 78.3401 56.831 78.6537 57.0656C78.9672 57.3001 79.1941 57.634 79.3343 58.0674Z" fill="black"/>
<path d="M85.2477 56.8017V57.2185H82.6819V56.8017H85.2477ZM83.5499 55.3945H84.0126V61.2871C84.0126 61.5267 84.0585 61.723 84.1502 61.8759C84.2446 62.0263 84.3669 62.1385 84.5173 62.2124C84.6703 62.2838 84.8334 62.3195 85.0068 62.3195C85.0909 62.3195 85.1636 62.3131 85.2247 62.3004C85.2885 62.2876 85.3484 62.2711 85.4044 62.2507L85.5192 62.6751C85.4478 62.7006 85.3688 62.7223 85.2821 62.7401C85.1954 62.7605 85.0934 62.7707 84.9762 62.7707C84.7315 62.7707 84.4995 62.7159 84.2802 62.6063C84.0636 62.4967 83.8877 62.3373 83.7526 62.1283C83.6174 61.9193 83.5499 61.6669 83.5499 61.3712V55.3945Z" fill="black"/>
<path d="M89.1315 62.6751V56.8017H89.5866V57.7194H89.6286C89.7561 57.4186 89.9715 57.1777 90.2749 56.9967C90.5782 56.8132 90.9236 56.7214 91.3111 56.7214C91.3519 56.7214 91.3927 56.7214 91.4335 56.7214C91.4743 56.7214 91.5125 56.7227 91.5482 56.7252V57.1956C91.5176 57.193 91.4806 57.1892 91.4373 57.1841C91.3965 57.1764 91.3455 57.1726 91.2843 57.1726C90.958 57.1726 90.6674 57.2427 90.4125 57.3829C90.1601 57.5231 89.9613 57.7169 89.816 57.9642C89.6707 58.2089 89.598 58.4893 89.598 58.8054V62.6751H89.1315Z" fill="black"/>
<path d="M96.5113 62.8013C96.1723 62.8013 95.8613 62.7337 95.5783 62.5986C95.2979 62.4635 95.0723 62.266 94.9015 62.0059C94.7333 61.7459 94.6491 61.4298 94.6491 61.0576C94.6491 60.8129 94.6925 60.5975 94.7791 60.4114C94.8658 60.2253 94.9996 60.0647 95.1806 59.9296C95.3616 59.7945 95.5936 59.6836 95.8766 59.5969C96.1595 59.5077 96.4973 59.4389 96.8899 59.3904C97.1881 59.3548 97.4545 59.3203 97.6891 59.2872C97.9236 59.2515 98.1071 59.1967 98.2397 59.1228C98.3748 59.0488 98.4424 58.9367 98.4424 58.7863V58.5415C98.4424 58.1133 98.3073 57.773 98.037 57.5206C97.7668 57.2682 97.3946 57.142 96.9205 57.142C96.4999 57.142 96.1455 57.2351 95.8575 57.4212C95.5719 57.6047 95.3718 57.8418 95.2571 58.1324L94.8174 57.968C94.9296 57.6876 95.0914 57.4543 95.303 57.2682C95.5171 57.0821 95.7619 56.9432 96.0372 56.8514C96.315 56.7596 96.6057 56.7138 96.909 56.7138C97.1716 56.7138 97.4214 56.7507 97.6585 56.8246C97.8981 56.8986 98.111 57.0107 98.2971 57.1611C98.4857 57.3116 98.6348 57.504 98.7445 57.7385C98.8541 57.9705 98.9089 58.2484 98.9089 58.5721V62.6751H98.4424V61.6159H98.408C98.306 61.8351 98.1658 62.0353 97.9873 62.2163C97.8114 62.3947 97.5986 62.5375 97.3488 62.6445C97.1015 62.749 96.8223 62.8013 96.5113 62.8013ZM96.5572 62.3692C96.9243 62.3692 97.2493 62.28 97.5323 62.1015C97.8178 61.9205 98.0409 61.6733 98.2015 61.3597C98.3621 61.0462 98.4424 60.6905 98.4424 60.2929V59.4287C98.3837 59.4797 98.2983 59.5256 98.1862 59.5663C98.0766 59.6046 97.9516 59.639 97.8114 59.6696C97.6738 59.6976 97.5285 59.7231 97.3755 59.7461C97.2251 59.7664 97.0785 59.7856 96.9358 59.8034C96.5075 59.8544 96.1583 59.9334 95.888 60.0405C95.6204 60.145 95.4241 60.2827 95.2992 60.4535C95.1768 60.6243 95.1156 60.8307 95.1156 61.0729C95.1156 61.4732 95.2533 61.7893 95.5286 62.0212C95.8039 62.2532 96.1468 62.3692 96.5572 62.3692Z" fill="black"/>
<path d="M105.095 56.8017V57.2185H102.529V56.8017H105.095ZM103.397 55.3945H103.86V61.2871C103.86 61.5267 103.905 61.723 103.997 61.8759C104.092 62.0263 104.214 62.1385 104.364 62.2124C104.517 62.2838 104.68 62.3195 104.854 62.3195C104.938 62.3195 105.011 62.3131 105.072 62.3004C105.135 62.2876 105.195 62.2711 105.251 62.2507L105.366 62.6751C105.295 62.7006 105.216 62.7223 105.129 62.7401C105.042 62.7605 104.94 62.7707 104.823 62.7707C104.578 62.7707 104.346 62.7159 104.127 62.6063C103.911 62.4967 103.735 62.3373 103.6 62.1283C103.464 61.9193 103.397 61.6669 103.397 61.3712V55.3945Z" fill="black"/>
<path d="M109.001 62.6751V56.8017H109.464V62.6751H109.001ZM109.235 55.7616C109.133 55.7616 109.044 55.7259 108.967 55.6546C108.893 55.5832 108.856 55.4965 108.856 55.3945C108.856 55.2926 108.893 55.2059 108.967 55.1345C109.041 55.0631 109.13 55.0275 109.235 55.0275C109.337 55.0275 109.425 55.0631 109.499 55.1345C109.575 55.2059 109.613 55.2926 109.613 55.3945C109.613 55.4965 109.576 55.5832 109.502 55.6546C109.428 55.7259 109.339 55.7616 109.235 55.7616Z" fill="black"/>
<path d="M115.755 62.7975C115.271 62.7975 114.84 62.6675 114.463 62.4074C114.085 62.1449 113.788 61.7842 113.572 61.3253C113.355 60.8664 113.247 60.3438 113.247 59.7575C113.247 59.1687 113.355 58.6461 113.572 58.1898C113.788 57.7309 114.085 57.3702 114.463 57.1076C114.84 56.845 115.271 56.7138 115.755 56.7138C116.239 56.7138 116.67 56.845 117.048 57.1076C117.425 57.3702 117.722 57.7309 117.939 58.1898C118.155 58.6486 118.264 59.1712 118.264 59.7575C118.264 60.3438 118.155 60.8664 117.939 61.3253C117.722 61.7842 117.425 62.1449 117.048 62.4074C116.67 62.6675 116.239 62.7975 115.755 62.7975ZM115.755 62.3654C116.166 62.3654 116.524 62.2494 116.83 62.0174C117.138 61.7854 117.376 61.4719 117.545 61.0767C117.715 60.6816 117.801 60.2419 117.801 59.7575C117.801 59.2732 117.715 58.8347 117.545 58.4421C117.374 58.047 117.136 57.7334 116.83 57.5015C116.524 57.2669 116.166 57.1497 115.755 57.1497C115.345 57.1497 114.987 57.2669 114.681 57.5015C114.375 57.7334 114.136 58.047 113.966 58.4421C113.795 58.8347 113.709 59.2732 113.709 59.7575C113.709 60.2419 113.794 60.6816 113.962 61.0767C114.133 61.4719 114.371 61.7854 114.677 62.0174C114.985 62.2494 115.345 62.3654 115.755 62.3654Z" fill="black"/>
<path d="M122.491 58.8666V62.6751H122.024V56.8017H122.479V57.7309H122.525C122.663 57.4275 122.883 57.1841 123.187 57.0005C123.49 56.817 123.851 56.7252 124.269 56.7252C124.664 56.7252 125.011 56.8094 125.309 56.9776C125.61 57.1459 125.844 57.3855 126.012 57.6965C126.183 58.0049 126.269 58.3733 126.269 58.8016V62.6751H125.802V58.8207C125.802 58.321 125.653 57.9195 125.355 57.6162C125.059 57.3103 124.668 57.1573 124.181 57.1573C123.854 57.1573 123.564 57.2287 123.309 57.3715C123.054 57.5142 122.854 57.7143 122.709 57.9718C122.563 58.2267 122.491 58.525 122.491 58.8666Z" fill="black"/>
<path d="M137.516 62.7822C137.07 62.7822 136.673 62.6891 136.327 62.503C135.983 62.3169 135.711 62.0658 135.512 61.7497C135.316 61.4311 135.218 61.0729 135.218 60.6752C135.218 60.4101 135.27 60.168 135.375 59.9487C135.479 59.7269 135.637 59.509 135.849 59.2948C136.063 59.0782 136.333 58.8487 136.659 58.6066L137.803 57.7538C138.124 57.5142 138.358 57.2899 138.506 57.0808C138.657 56.8693 138.732 56.6271 138.732 56.3543C138.732 56.028 138.62 55.7489 138.395 55.5169C138.174 55.2849 137.891 55.1689 137.547 55.1689C137.312 55.1689 137.097 55.2301 136.9 55.3525C136.707 55.4723 136.551 55.6291 136.434 55.8228C136.319 56.0165 136.262 56.2243 136.262 56.4461C136.262 56.6194 136.303 56.7915 136.384 56.9623C136.468 57.1306 136.587 57.3167 136.74 57.5206C136.895 57.722 137.081 57.9565 137.298 58.2242L140.862 62.6751H140.296L137.023 58.5951C136.77 58.2841 136.552 58.0113 136.369 57.7768C136.185 57.5423 136.044 57.3192 135.944 57.1076C135.845 56.896 135.795 56.673 135.795 56.4384C135.795 56.1249 135.872 55.8407 136.025 55.5857C136.18 55.3283 136.389 55.1243 136.652 54.9739C136.914 54.8235 137.21 54.7483 137.539 54.7483C137.865 54.7483 138.153 54.8197 138.403 54.9624C138.653 55.1027 138.848 55.2951 138.988 55.5398C139.128 55.782 139.198 56.0535 139.198 56.3543C139.198 56.6883 139.109 56.9903 138.931 57.2606C138.755 57.5308 138.481 57.8099 138.109 58.098L136.824 59.0539C136.396 59.3802 136.099 59.6709 135.933 59.9258C135.77 60.1807 135.688 60.4305 135.688 60.6752C135.688 60.9812 135.767 61.2603 135.925 61.5127C136.083 61.765 136.299 61.9677 136.572 62.1207C136.847 62.2736 137.159 62.3514 137.508 62.3539C137.86 62.3488 138.185 62.28 138.483 62.1474C138.782 62.0149 139.044 61.83 139.271 61.593C139.501 61.3533 139.687 61.0691 139.829 60.7402C139.975 60.4089 140.069 60.0405 140.112 59.6352L140.567 59.6581C140.542 59.9768 140.486 60.2635 140.399 60.5185C140.312 60.7708 140.212 60.9939 140.097 61.1876C139.985 61.3814 139.877 61.5458 139.772 61.6809C139.741 61.7217 139.712 61.7612 139.684 61.7995C139.656 61.8377 139.625 61.8747 139.592 61.9103C139.335 62.1882 139.019 62.4036 138.644 62.5566C138.272 62.707 137.896 62.7822 137.516 62.7822Z" fill="black"/>
<path d="M151.703 62.6751H149.531V54.8439H151.871C152.605 54.8439 153.234 54.9994 153.756 55.3104C154.279 55.6214 154.679 56.0675 154.957 56.6488C155.237 57.2274 155.376 57.9221 155.374 58.7327C155.371 59.5612 155.226 60.2699 154.938 60.8588C154.65 61.4451 154.233 61.895 153.688 62.2086C153.142 62.5196 152.48 62.6751 151.703 62.6751ZM150.009 62.2315H151.684C152.382 62.2315 152.971 62.0926 153.45 61.8147C153.93 61.5343 154.292 61.1328 154.536 60.6102C154.784 60.0877 154.906 59.4618 154.904 58.7327C154.904 58.0139 154.785 57.3982 154.548 56.8858C154.311 56.3709 153.965 55.9758 153.512 55.7004C153.06 55.4251 152.507 55.2875 151.852 55.2875H150.009V62.2315Z" fill="black"/>
<path d="M161.519 62.7975C160.988 62.7975 160.527 62.6662 160.134 62.4036C159.742 62.141 159.438 61.7816 159.224 61.3253C159.01 60.869 158.903 60.3489 158.903 59.7652C158.903 59.1789 159.01 58.6563 159.224 58.1974C159.441 57.7385 159.738 57.3766 160.115 57.1114C160.492 56.8463 160.923 56.7138 161.408 56.7138C161.737 56.7138 162.048 56.78 162.341 56.9126C162.636 57.0426 162.896 57.2312 163.121 57.4785C163.348 57.7258 163.525 58.0241 163.652 58.3733C163.782 58.7225 163.847 59.1151 163.847 59.551V59.8417H159.197V59.4172H163.381C163.381 58.9915 163.294 58.6078 163.121 58.2662C162.947 57.9246 162.712 57.6531 162.413 57.4518C162.115 57.2504 161.78 57.1497 161.408 57.1497C161.018 57.1497 160.67 57.2593 160.364 57.4785C160.06 57.6952 159.82 57.9884 159.641 58.358C159.465 58.7276 159.373 59.1406 159.366 59.5969V59.7881C159.366 60.2776 159.451 60.7173 159.622 61.1073C159.795 61.4948 160.043 61.802 160.364 62.0289C160.685 62.2532 161.07 62.3654 161.519 62.3654C161.84 62.3654 162.114 62.3118 162.341 62.2048C162.57 62.0952 162.757 61.9626 162.903 61.8071C163.048 61.6516 163.158 61.5012 163.232 61.3559L163.656 61.528C163.567 61.7243 163.428 61.9205 163.239 62.1168C163.053 62.3106 162.816 62.4724 162.528 62.6025C162.243 62.7325 161.906 62.7975 161.519 62.7975Z" fill="black"/>
<path d="M171.339 58.0674L170.907 58.1821C170.838 57.968 170.74 57.7832 170.612 57.6277C170.485 57.4722 170.324 57.3523 170.131 57.2682C169.939 57.1815 169.71 57.1382 169.442 57.1382C169.011 57.1382 168.658 57.2453 168.383 57.4594C168.11 57.6735 167.974 57.9527 167.974 58.2968C167.974 58.5772 168.067 58.8092 168.253 58.9928C168.439 59.1738 168.723 59.3114 169.106 59.4057L170.008 59.6313C170.472 59.7461 170.821 59.9321 171.056 60.1896C171.29 60.4445 171.408 60.7619 171.408 61.1418C171.408 61.4655 171.32 61.7523 171.144 62.0021C170.968 62.2519 170.725 62.447 170.414 62.5872C170.105 62.7274 169.746 62.7975 169.335 62.7975C168.787 62.7975 168.337 62.67 167.985 62.4151C167.634 62.1576 167.408 61.7893 167.309 61.31L167.756 61.1953C167.84 61.5777 168.015 61.8696 168.28 62.0709C168.548 62.2698 168.898 62.3692 169.331 62.3692C169.811 62.3692 170.197 62.2558 170.49 62.0289C170.786 61.802 170.934 61.5114 170.934 61.1571C170.934 60.8868 170.847 60.6587 170.674 60.4726C170.5 60.2865 170.238 60.1501 169.886 60.0634L168.949 59.834C168.47 59.7167 168.11 59.5294 167.871 59.2719C167.631 59.0119 167.511 58.692 167.511 58.3121C167.511 57.996 167.594 57.7181 167.76 57.4785C167.925 57.2389 168.154 57.0515 168.444 56.9164C168.735 56.7813 169.068 56.7138 169.442 56.7138C169.939 56.7138 170.345 56.831 170.658 57.0656C170.972 57.3001 171.199 57.634 171.339 58.0674Z" fill="black"/>
<path d="M175.199 62.6751V56.8017H175.662V62.6751H175.199ZM175.432 55.7616C175.33 55.7616 175.241 55.7259 175.164 55.6546C175.091 55.5832 175.054 55.4965 175.054 55.3945C175.054 55.2926 175.091 55.2059 175.164 55.1345C175.238 55.0631 175.328 55.0275 175.432 55.0275C175.534 55.0275 175.622 55.0631 175.696 55.1345C175.772 55.2059 175.811 55.2926 175.811 55.3945C175.811 55.4965 175.774 55.5832 175.7 55.6546C175.626 55.7259 175.537 55.7616 175.432 55.7616Z" fill="black"/>
<path d="M181.888 65C181.523 65 181.195 64.9516 180.905 64.8547C180.614 64.7604 180.367 64.6253 180.163 64.4494C179.962 64.2735 179.807 64.0644 179.7 63.8223L180.09 63.5928C180.177 63.7815 180.301 63.9497 180.461 64.0976C180.622 64.2454 180.821 64.3614 181.058 64.4455C181.297 64.5297 181.574 64.5717 181.888 64.5717C182.453 64.5717 182.901 64.4251 183.23 64.132C183.561 63.8414 183.727 63.3953 183.727 62.7936V61.3329H183.681C183.592 61.5879 183.459 61.8147 183.283 62.0136C183.11 62.2099 182.897 62.3641 182.645 62.4763C182.392 62.5884 182.105 62.6445 181.784 62.6445C181.32 62.6445 180.912 62.5247 180.561 62.2851C180.209 62.0455 179.935 61.709 179.739 61.2756C179.542 60.8397 179.444 60.3273 179.444 59.7384C179.444 59.1495 179.54 58.6282 179.731 58.1745C179.925 57.7182 180.197 57.3613 180.549 57.1038C180.901 56.8438 181.314 56.7138 181.788 56.7138C182.127 56.7138 182.42 56.7788 182.668 56.9088C182.917 57.0362 183.126 57.2058 183.295 57.4173C183.463 57.6289 183.593 57.8609 183.685 58.1133H183.738V56.8017H184.189V62.8128C184.189 63.3022 184.093 63.7088 183.899 64.0326C183.708 64.3563 183.439 64.5985 183.092 64.7591C182.748 64.9197 182.346 65 181.888 65ZM181.826 62.2124C182.219 62.2124 182.557 62.113 182.84 61.9142C183.125 61.7128 183.344 61.4273 183.497 61.0576C183.653 60.6854 183.731 60.2444 183.731 59.7346C183.731 59.24 183.655 58.7977 183.505 58.4077C183.355 58.0177 183.137 57.7105 182.851 57.4862C182.566 57.2618 182.224 57.1497 181.826 57.1497C181.421 57.1497 181.076 57.2644 180.79 57.4938C180.505 57.7207 180.285 58.0292 180.132 58.4192C179.982 58.8092 179.907 59.2477 179.907 59.7346C179.907 60.224 179.983 60.6549 180.136 61.027C180.289 61.3967 180.508 61.6873 180.794 61.8989C181.079 62.1079 181.424 62.2124 181.826 62.2124Z" fill="black"/>
<path d="M188.772 58.8666V62.6751H188.306V56.8017H188.761V57.7309H188.807C188.944 57.4275 189.165 57.1841 189.468 57.0005C189.771 56.817 190.132 56.7252 190.55 56.7252C190.945 56.7252 191.292 56.8094 191.59 56.9776C191.891 57.1459 192.126 57.3855 192.294 57.6965C192.465 58.0049 192.55 58.3733 192.55 58.8016V62.6751H192.084V58.8207C192.084 58.321 191.934 57.9195 191.636 57.6162C191.34 57.3103 190.949 57.1573 190.462 57.1573C190.136 57.1573 189.845 57.2287 189.59 57.3715C189.335 57.5142 189.135 57.7143 188.99 57.9718C188.845 58.2267 188.772 58.525 188.772 58.8666Z" fill="black"/>
<path d="M12.2675 42.4757C10.1743 42.4757 8.23908 41.9425 6.46186 40.8762C4.68463 39.7704 3.26285 38.3091 2.19651 36.4924C1.16967 34.6757 0.65625 32.6812 0.65625 30.5091L0.774732 0.888612C0.774732 0.730636 0.85372 0.651648 1.0117 0.651648H7.64668C7.80465 0.651648 7.88364 0.730636 7.88364 0.888612V30.5091C7.88364 31.8519 8.29833 32.9972 9.1277 33.945C9.99656 34.8534 11.0432 35.3076 12.2675 35.3076C13.5313 35.3076 14.5779 34.8534 15.4072 33.945C16.2761 32.9972 16.7105 31.8519 16.7105 30.5091V0.888612C16.7105 0.730636 16.7895 0.651648 16.9475 0.651648H23.5825C23.7405 0.651648 23.8194 0.730636 23.8194 0.888612L23.9379 30.5091C23.9379 32.7207 23.4048 34.7349 22.3384 36.5516C21.3116 38.3683 19.9095 39.8099 18.1323 40.8762C16.3946 41.9425 14.4396 42.4757 12.2675 42.4757Z" fill="#00BDD7"/>
<path d="M35.0729 41.8833C34.7569 41.8833 34.599 41.7451 34.599 41.4686L34.5397 1.12558C34.5397 0.809624 34.6977 0.651648 35.0136 0.651648H40.3453L50.357 23.9926L50.0608 1.12558C50.0608 0.809624 50.2386 0.651648 50.594 0.651648H56.4589C56.6958 0.651648 56.8143 0.809624 56.8143 1.12558L56.8735 41.5279C56.8735 41.7648 56.7748 41.8833 56.5773 41.8833H51.3641L41.1155 20.0827L41.5302 41.4094C41.5302 41.7253 41.3524 41.8833 40.997 41.8833H35.0729Z" fill="#00BDD7"/>
<path d="M68.2399 41.8833C68.0425 41.8833 67.9437 41.7846 67.9437 41.5871L68.003 0.888612C68.003 0.730636 68.0819 0.651648 68.2399 0.651648H74.8749C75.0329 0.651648 75.1119 0.730636 75.1119 0.888612L75.1711 41.5871C75.1711 41.7846 75.0921 41.8833 74.9341 41.8833H68.2399Z" fill="#00BDD7"/>
<path d="M105.796 45.6747L101.709 41.5279C100.287 42.1598 98.8059 42.4757 97.2656 42.4757C95.1725 42.4757 93.2373 41.9425 91.46 40.8762C89.6828 39.8099 88.261 38.3683 87.1947 36.5516C86.1284 34.7349 85.5952 32.7405 85.5952 30.5683L85.6544 11.7889C85.6544 9.69576 86.1679 7.76055 87.1947 5.98333C88.2215 4.16661 89.6038 2.72508 91.3416 1.65874C93.1188 0.552915 95.0935 0 97.2656 0C99.3588 0 101.274 0.533168 103.012 1.5995C104.789 2.62634 106.191 4.02838 107.218 5.80561C108.284 7.58283 108.818 9.57728 108.818 11.7889L108.877 30.5683C108.877 31.7136 108.719 32.8195 108.403 33.8858C108.087 34.9521 107.672 35.9395 107.159 36.8478L110.832 40.58C110.99 40.738 111.01 40.8762 110.891 40.9947L106.211 45.6747C106.053 45.7932 105.915 45.7932 105.796 45.6747ZM97.2656 35.3076C98.6084 35.3076 99.6748 34.8139 100.465 33.8265C101.294 32.7997 101.709 31.7136 101.709 30.5683L101.649 11.7889C101.649 10.5251 101.235 9.43905 100.405 8.53069C99.576 7.58283 98.5295 7.10891 97.2656 7.10891C95.9229 7.10891 94.8368 7.58283 94.0074 8.53069C93.2175 9.47854 92.8226 10.5646 92.8226 11.7889V30.5683C92.8226 31.9901 93.2768 33.1354 94.1851 34.0043C95.133 34.8731 96.1598 35.3076 97.2656 35.3076Z" fill="#00BDD7"/>
<path d="M130.726 42.4757C128.633 42.4757 126.698 41.9425 124.92 40.8762C123.143 39.7704 121.721 38.3091 120.655 36.4924C119.628 34.6757 119.115 32.6812 119.115 30.5091L119.233 0.888612C119.233 0.730636 119.312 0.651648 119.47 0.651648H126.105C126.263 0.651648 126.342 0.730636 126.342 0.888612V30.5091C126.342 31.8519 126.757 32.9972 127.586 33.945C128.455 34.8534 129.502 35.3076 130.726 35.3076C131.99 35.3076 133.036 34.8534 133.866 33.945C134.735 32.9972 135.169 31.8519 135.169 30.5091V0.888612C135.169 0.730636 135.248 0.651648 135.406 0.651648H142.041C142.199 0.651648 142.278 0.730636 142.278 0.888612L142.397 30.5091C142.397 32.7207 141.863 34.7349 140.797 36.5516C139.77 38.3683 138.368 39.8099 136.591 40.8762C134.853 41.9425 132.898 42.4757 130.726 42.4757Z" fill="#00BDD7"/>
<path d="M153.235 41.8833C153.077 41.8833 152.998 41.7846 152.998 41.5871L153.058 0.888612C153.058 0.730636 153.137 0.651648 153.295 0.651648H172.311C172.469 0.651648 172.548 0.750383 172.548 0.947853V7.58283C172.548 7.74081 172.469 7.8198 172.311 7.8198H160.167V17.0614H172.311C172.469 17.0614 172.548 17.1404 172.548 17.2983L172.607 23.9926C172.607 24.1505 172.528 24.2295 172.37 24.2295H160.167V34.5967H172.37C172.528 34.5967 172.607 34.6954 172.607 34.8929V41.6463C172.607 41.8043 172.528 41.8833 172.37 41.8833H153.235Z" fill="#00BDD7"/>
<path d="M195.277 41.8834C195.119 41.8834 195.04 41.7847 195.04 41.5872L195.159 0.888706C195.159 0.73073 195.238 0.651742 195.396 0.651742H202.623C202.781 0.651742 202.919 0.73073 203.038 0.888706L208.429 8.70851L213.82 0.888706C213.938 0.73073 214.076 0.651742 214.234 0.651742H221.521C221.679 0.651742 221.758 0.73073 221.758 0.888706L221.876 41.5872C221.876 41.7847 221.797 41.8834 221.639 41.8834H214.945C214.787 41.8834 214.708 41.7847 214.708 41.5872L214.649 11.3743L208.429 20.379L202.268 11.3743L202.208 41.5872C202.208 41.7847 202.129 41.8834 201.971 41.8834H195.277Z" fill="#00BDD7"/>
</svg>
